ply
format ascii 1.0
element sphere 1000
property float32 colorR
property float32 colouG
property float32 colorB
property float32 gloss
property float32 centerX
property float32 centerY
property float32 centerZ
property float32 radius
end_header
200 200 200 200.0 -10.0 -10.0 3.0 0.5
200 200 200 200.0 -10.0 -10.0 5.0 0.5
200 200 200 200.0 -10.0 -10.0 7.0 0.5
200 200 200 200.0 -10.0 -10.0 9.0 0.5
200 200 200 200.0 -10.0 -10.0 11.0 0.5
200 200 200 200.0 -10.0 -10.0 13.0 0.5
200 200 200 200.0 -10.0 -10.0 15.0 0.5
200 200 200 200.0 -10.0 -10.0 17.0 0.5
200 200 200 200.0 -10.0 -10.0 19.0 0.5
200 200 200 200.0 -10.0 -10.0 21.0 0.5
200 200 200 200.0 -10.0 -8.0 3.0 0.5
200 200 200 200.0 -10.0 -8.0 5.0 0.5
200 200 200 200.0 -10.0 -8.0 7.0 0.5
200 200 200 200.0 -10.0 -8.0 9.0 0.5
200 200 200 200.0 -10.0 -8.0 11.0 0.5
200 200 200 200.0 -10.0 -8.0 13.0 0.5
200 200 200 200.0 -10.0 -8.0 15.0 0.5
200 200 200 200.0 -10.0 -8.0 17.0 0.5
200 200 200 200.0 -10.0 -8.0 19.0 0.5
200 200 200 200.0 -10.0 -8.0 21.0 0.5
200 200 200 200.0 -10.0 -6.0 3.0 0.5
200 200 200 200.0 -10.0 -6.0 5.0 0.5
200 200 200 200.0 -10.0 -6.0 7.0 0.5
200 200 200 200.0 -10.0 -6.0 9.0 0.5
200 200 200 200.0 -10.0 -6.0 11.0 0.5
200 200 200 200.0 -10.0 -6.0 13.0 0.5
200 200 200 200.0 -10.0 -6.0 15.0 0.5
200 200 200 200.0 -10.0 -6.0 17.0 0.5
200 200 200 200.0 -10.0 -6.0 19.0 0.5
200 200 200 200.0 -10.0 -6.0 21.0 0.5
200 200 200 200.0 -10.0 -4.0 3.0 0.5
200 200 200 200.0 -10.0 -4.0 5.0 0.5
200 200 200 200.0 -10.0 -4.0 7.0 0.5
200 200 200 200.0 -10.0 -4.0 9.0 0.5
200 200 200 200.0 -10.0 -4.0 11.0 0.5
200 200 200 200.0 -10.0 -4.0 13.0 0.5
200 200 200 200.0 -10.0 -4.0 15.0 0.5
200 200 200 200.0 -10.0 -4.0 17.0 0.5
200 200 200 200.0 -10.0 -4.0 19.0 0.5
200 200 200 200.0 -10.0 -4.0 21.0 0.5
200 200 200 200.0 -10.0 -2.0 3.0 0.5
200 200 200 200.0 -10.0 -2.0 5.0 0.5
200 200 200 200.0 -10.0 -2.0 7.0 0.5
200 200 200 200.0 -10.0 -2.0 9.0 0.5
200 200 200 200.0 -10.0 -2.0 11.0 0.5
200 200 200 200.0 -10.0 -2.0 13.0 0.5
200 200 200 200.0 -10.0 -2.0 15.0 0.5
200 200 200 200.0 -10.0 -2.0 17.0 0.5
200 200 200 200.0 -10.0 -2.0 19.0 0.5
200 200 200 200.0 -10.0 -2.0 21.0 0.5
200 200 200 200.0 -10.0 0.0 3.0 0.5
200 200 200 200.0 -10.0 0.0 5.0 0.5
200 200 200 200.0 -10.0 0.0 7.0 0.5
200 200 200 200.0 -10.0 0.0 9.0 0.5
200 200 200 200.0 -10.0 0.0 11.0 0.5
200 200 200 200.0 -10.0 0.0 13.0 0.5
200 200 200 200.0 -10.0 0.0 15.0 0.5
200 200 200 200.0 -10.0 0.0 17.0 0.5
200 200 200 200.0 -10.0 0.0 19.0 0.5
200 200 200 200.0 -10.0 0.0 21.0 0.5
200 200 200 200.0 -10.0 2.0 3.0 0.5
200 200 200 200.0 -10.0 2.0 5.0 0.5
200 200 200 200.0 -10.0 2.0 7.0 0.5
200 200 200 200.0 -10.0 2.0 9.0 0.5
200 200 200 200.0 -10.0 2.0 11.0 0.5
200 200 200 200.0 -10.0 2.0 13.0 0.5
200 200 200 200.0 -10.0 2.0 15.0 0.5
200 200 200 200.0 -10.0 2.0 17.0 0.5
200 200 200 200.0 -10.0 2.0 19.0 0.5
200 200 200 200.0 -10.0 2.0 21.0 0.5
200 200 200 200.0 -10.0 4.0 3.0 0.5
200 200 200 200.0 -10.0 4.0 5.0 0.5
200 200 200 200.0 -10.0 4.0 7.0 0.5
200 200 200 200.0 -10.0 4.0 9.0 0.5
200 200 200 200.0 -10.0 4.0 11.0 0.5
200 200 200 200.0 -10.0 4.0 13.0 0.5
200 200 200 200.0 -10.0 4.0 15.0 0.5
200 200 200 200.0 -10.0 4.0 17.0 0.5
200 200 200 200.0 -10.0 4.0 19.0 0.5
200 200 200 200.0 -10.0 4.0 21.0 0.5
200 200 200 200.0 -10.0 6.0 3.0 0.5
200 200 200 200.0 -10.0 6.0 5.0 0.5
200 200 200 200.0 -10.0 6.0 7.0 0.5
200 200 200 200.0 -10.0 6.0 9.0 0.5
200 200 200 200.0 -10.0 6.0 11.0 0.5
200 200 200 200.0 -10.0 6.0 13.0 0.5
200 200 200 200.0 -10.0 6.0 15.0 0.5
200 200 200 200.0 -10.0 6.0 17.0 0.5
200 200 200 200.0 -10.0 6.0 19.0 0.5
200 200 200 200.0 -10.0 6.0 21.0 0.5
200 200 200 200.0 -10.0 8.0 3.0 0.5
200 200 200 200.0 -10.0 8.0 5.0 0.5
200 200 200 200.0 -10.0 8.0 7.0 0.5
200 200 200 200.0 -10.0 8.0 9.0 0.5
200 200 200 200.0 -10.0 8.0 11.0 0.5
200 200 200 200.0 -10.0 8.0 13.0 0.5
200 200 200 200.0 -10.0 8.0 15.0 0.5
200 200 200 200.0 -10.0 8.0 17.0 0.5
200 200 200 200.0 -10.0 8.0 19.0 0.5
200 200 200 200.0 -10.0 8.0 21.0 0.5
200 200 200 200.0 -8.0 -10.0 3.0 0.5
200 200 200 200.0 -8.0 -10.0 5.0 0.5
200 200 200 200.0 -8.0 -10.0 7.0 0.5
200 200 200 200.0 -8.0 -10.0 9.0 0.5
200 200 200 200.0 -8.0 -10.0 11.0 0.5
200 200 200 200.0 -8.0 -10.0 13.0 0.5
200 200 200 200.0 -8.0 -10.0 15.0 0.5
200 200 200 200.0 -8.0 -10.0 17.0 0.5
200 200 200 200.0 -8.0 -10.0 19.0 0.5
200 200 200 200.0 -8.0 -10.0 21.0 0.5
200 200 200 200.0 -8.0 -8.0 3.0 0.5
200 200 200 200.0 -8.0 -8.0 5.0 0.5
200 200 200 200.0 -8.0 -8.0 7.0 0.5
200 200 200 200.0 -8.0 -8.0 9.0 0.5
200 200 200 200.0 -8.0 -8.0 11.0 0.5
200 200 200 200.0 -8.0 -8.0 13.0 0.5
200 200 200 200.0 -8.0 -8.0 15.0 0.5
200 200 200 200.0 -8.0 -8.0 17.0 0.5
200 200 200 200.0 -8.0 -8.0 19.0 0.5
200 200 200 200.0 -8.0 -8.0 21.0 0.5
200 200 200 200.0 -8.0 -6.0 3.0 0.5
200 200 200 200.0 -8.0 -6.0 5.0 0.5
200 200 200 200.0 -8.0 -6.0 7.0 0.5
200 200 200 200.0 -8.0 -6.0 9.0 0.5
200 200 200 200.0 -8.0 -6.0 11.0 0.5
200 200 200 200.0 -8.0 -6.0 13.0 0.5
200 200 200 200.0 -8.0 -6.0 15.0 0.5
200 200 200 200.0 -8.0 -6.0 17.0 0.5
200 200 200 200.0 -8.0 -6.0 19.0 0.5
200 200 200 200.0 -8.0 -6.0 21.0 0.5
200 200 200 200.0 -8.0 -4.0 3.0 0.5
200 200 200 200.0 -8.0 -4.0 5.0 0.5
200 200 200 200.0 -8.0 -4.0 7.0 0.5
200 200 200 200.0 -8.0 -4.0 9.0 0.5
200 200 200 200.0 -8.0 -4.0 11.0 0.5
200 200 200 200.0 -8.0 -4.0 13.0 0.5
200 200 200 200.0 -8.0 -4.0 15.0 0.5
200 200 200 200.0 -8.0 -4.0 17.0 0.5
200 200 200 200.0 -8.0 -4.0 19.0 0.5
200 200 200 200.0 -8.0 -4.0 21.0 0.5
200 200 200 200.0 -8.0 -2.0 3.0 0.5
200 200 200 200.0 -8.0 -2.0 5.0 0.5
200 200 200 200.0 -8.0 -2.0 7.0 0.5
200 200 200 200.0 -8.0 -2.0 9.0 0.5
200 200 200 200.0 -8.0 -2.0 11.0 0.5
200 200 200 200.0 -8.0 -2.0 13.0 0.5
200 200 200 200.0 -8.0 -2.0 15.0 0.5
200 200 200 200.0 -8.0 -2.0 17.0 0.5
200 200 200 200.0 -8.0 -2.0 19.0 0.5
200 200 200 200.0 -8.0 -2.0 21.0 0.5
200 200 200 200.0 -8.0 0.0 3.0 0.5
200 200 200 200.0 -8.0 0.0 5.0 0.5
200 200 200 200.0 -8.0 0.0 7.0 0.5
200 200 200 200.0 -8.0 0.0 9.0 0.5
200 200 200 200.0 -8.0 0.0 11.0 0.5
200 200 200 200.0 -8.0 0.0 13.0 0.5
200 200 200 200.0 -8.0 0.0 15.0 0.5
200 200 200 200.0 -8.0 0.0 17.0 0.5
200 200 200 200.0 -8.0 0.0 19.0 0.5
200 200 200 200.0 -8.0 0.0 21.0 0.5
200 200 200 200.0 -8.0 2.0 3.0 0.5
200 200 200 200.0 -8.0 2.0 5.0 0.5
200 200 200 200.0 -8.0 2.0 7.0 0.5
200 200 200 200.0 -8.0 2.0 9.0 0.5
200 200 200 200.0 -8.0 2.0 11.0 0.5
200 200 200 200.0 -8.0 2.0 13.0 0.5
200 200 200 200.0 -8.0 2.0 15.0 0.5
200 200 200 200.0 -8.0 2.0 17.0 0.5
200 200 200 200.0 -8.0 2.0 19.0 0.5
200 200 200 200.0 -8.0 2.0 21.0 0.5
200 200 200 200.0 -8.0 4.0 3.0 0.5
200 200 200 200.0 -8.0 4.0 5.0 0.5
200 200 200 200.0 -8.0 4.0 7.0 0.5
200 200 200 200.0 -8.0 4.0 9.0 0.5
200 200 200 200.0 -8.0 4.0 11.0 0.5
200 200 200 200.0 -8.0 4.0 13.0 0.5
200 200 200 200.0 -8.0 4.0 15.0 0.5
200 200 200 200.0 -8.0 4.0 17.0 0.5
200 200 200 200.0 -8.0 4.0 19.0 0.5
200 200 200 200.0 -8.0 4.0 21.0 0.5
200 200 200 200.0 -8.0 6.0 3.0 0.5
200 200 200 200.0 -8.0 6.0 5.0 0.5
200 200 200 200.0 -8.0 6.0 7.0 0.5
200 200 200 200.0 -8.0 6.0 9.0 0.5
200 200 200 200.0 -8.0 6.0 11.0 0.5
200 200 200 200.0 -8.0 6.0 13.0 0.5
200 200 200 200.0 -8.0 6.0 15.0 0.5
200 200 200 200.0 -8.0 6.0 17.0 0.5
200 200 200 200.0 -8.0 6.0 19.0 0.5
200 200 200 200.0 -8.0 6.0 21.0 0.5
200 200 200 200.0 -8.0 8.0 3.0 0.5
200 200 200 200.0 -8.0 8.0 5.0 0.5
200 200 200 200.0 -8.0 8.0 7.0 0.5
200 200 200 200.0 -8.0 8.0 9.0 0.5
200 200 200 200.0 -8.0 8.0 11.0 0.5
200 200 200 200.0 -8.0 8.0 13.0 0.5
200 200 200 200.0 -8.0 8.0 15.0 0.5
200 200 200 200.0 -8.0 8.0 17.0 0.5
200 200 200 200.0 -8.0 8.0 19.0 0.5
200 200 200 200.0 -8.0 8.0 21.0 0.5
200 200 200 200.0 -6.0 -10.0 3.0 0.5
200 200 200 200.0 -6.0 -10.0 5.0 0.5
200 200 200 200.0 -6.0 -10.0 7.0 0.5
200 200 200 200.0 -6.0 -10.0 9.0 0.5
200 200 200 200.0 -6.0 -10.0 11.0 0.5
200 200 200 200.0 -6.0 -10.0 13.0 0.5
200 200 200 200.0 -6.0 -10.0 15.0 0.5
200 200 200 200.0 -6.0 -10.0 17.0 0.5
200 200 200 200.0 -6.0 -10.0 19.0 0.5
200 200 200 200.0 -6.0 -10.0 21.0 0.5
200 200 200 200.0 -6.0 -8.0 3.0 0.5
200 200 200 200.0 -6.0 -8.0 5.0 0.5
200 200 200 200.0 -6.0 -8.0 7.0 0.5
200 200 200 200.0 -6.0 -8.0 9.0 0.5
200 200 200 200.0 -6.0 -8.0 11.0 0.5
200 200 200 200.0 -6.0 -8.0 13.0 0.5
200 200 200 200.0 -6.0 -8.0 15.0 0.5
200 200 200 200.0 -6.0 -8.0 17.0 0.5
200 200 200 200.0 -6.0 -8.0 19.0 0.5
200 200 200 200.0 -6.0 -8.0 21.0 0.5
200 200 200 200.0 -6.0 -6.0 3.0 0.5
200 200 200 200.0 -6.0 -6.0 5.0 0.5
200 200 200 200.0 -6.0 -6.0 7.0 0.5
200 200 200 200.0 -6.0 -6.0 9.0 0.5
200 200 200 200.0 -6.0 -6.0 11.0 0.5
200 200 200 200.0 -6.0 -6.0 13.0 0.5
200 200 200 200.0 -6.0 -6.0 15.0 0.5
200 200 200 200.0 -6.0 -6.0 17.0 0.5
200 200 200 200.0 -6.0 -6.0 19.0 0.5
200 200 200 200.0 -6.0 -6.0 21.0 0.5
200 200 200 200.0 -6.0 -4.0 3.0 0.5
200 200 200 200.0 -6.0 -4.0 5.0 0.5
200 200 200 200.0 -6.0 -4.0 7.0 0.5
200 200 200 200.0 -6.0 -4.0 9.0 0.5
200 200 200 200.0 -6.0 -4.0 11.0 0.5
200 200 200 200.0 -6.0 -4.0 13.0 0.5
200 200 200 200.0 -6.0 -4.0 15.0 0.5
200 200 200 200.0 -6.0 -4.0 17.0 0.5
200 200 200 200.0 -6.0 -4.0 19.0 0.5
200 200 200 200.0 -6.0 -4.0 21.0 0.5
200 200 200 200.0 -6.0 -2.0 3.0 0.5
200 200 200 200.0 -6.0 -2.0 5.0 0.5
200 200 200 200.0 -6.0 -2.0 7.0 0.5
200 200 200 200.0 -6.0 -2.0 9.0 0.5
200 200 200 200.0 -6.0 -2.0 11.0 0.5
200 200 200 200.0 -6.0 -2.0 13.0 0.5
200 200 200 200.0 -6.0 -2.0 15.0 0.5
200 200 200 200.0 -6.0 -2.0 17.0 0.5
200 200 200 200.0 -6.0 -2.0 19.0 0.5
200 200 200 200.0 -6.0 -2.0 21.0 0.5
200 200 200 200.0 -6.0 0.0 3.0 0.5
200 200 200 200.0 -6.0 0.0 5.0 0.5
200 200 200 200.0 -6.0 0.0 7.0 0.5
200 200 200 200.0 -6.0 0.0 9.0 0.5
200 200 200 200.0 -6.0 0.0 11.0 0.5
200 200 200 200.0 -6.0 0.0 13.0 0.5
200 200 200 200.0 -6.0 0.0 15.0 0.5
200 200 200 200.0 -6.0 0.0 17.0 0.5
200 200 200 200.0 -6.0 0.0 19.0 0.5
200 200 200 200.0 -6.0 0.0 21.0 0.5
200 200 200 200.0 -6.0 2.0 3.0 0.5
200 200 200 200.0 -6.0 2.0 5.0 0.5
200 200 200 200.0 -6.0 2.0 7.0 0.5
200 200 200 200.0 -6.0 2.0 9.0 0.5
200 200 200 200.0 -6.0 2.0 11.0 0.5
200 200 200 200.0 -6.0 2.0 13.0 0.5
200 200 200 200.0 -6.0 2.0 15.0 0.5
200 200 200 200.0 -6.0 2.0 17.0 0.5
200 200 200 200.0 -6.0 2.0 19.0 0.5
200 200 200 200.0 -6.0 2.0 21.0 0.5
200 200 200 200.0 -6.0 4.0 3.0 0.5
200 200 200 200.0 -6.0 4.0 5.0 0.5
200 200 200 200.0 -6.0 4.0 7.0 0.5
200 200 200 200.0 -6.0 4.0 9.0 0.5
200 200 200 200.0 -6.0 4.0 11.0 0.5
200 200 200 200.0 -6.0 4.0 13.0 0.5
200 200 200 200.0 -6.0 4.0 15.0 0.5
200 200 200 200.0 -6.0 4.0 17.0 0.5
200 200 200 200.0 -6.0 4.0 19.0 0.5
200 200 200 200.0 -6.0 4.0 21.0 0.5
200 200 200 200.0 -6.0 6.0 3.0 0.5
200 200 200 200.0 -6.0 6.0 5.0 0.5
200 200 200 200.0 -6.0 6.0 7.0 0.5
200 200 200 200.0 -6.0 6.0 9.0 0.5
200 200 200 200.0 -6.0 6.0 11.0 0.5
200 200 200 200.0 -6.0 6.0 13.0 0.5
200 200 200 200.0 -6.0 6.0 15.0 0.5
200 200 200 200.0 -6.0 6.0 17.0 0.5
200 200 200 200.0 -6.0 6.0 19.0 0.5
200 200 200 200.0 -6.0 6.0 21.0 0.5
200 200 200 200.0 -6.0 8.0 3.0 0.5
200 200 200 200.0 -6.0 8.0 5.0 0.5
200 200 200 200.0 -6.0 8.0 7.0 0.5
200 200 200 200.0 -6.0 8.0 9.0 0.5
200 200 200 200.0 -6.0 8.0 11.0 0.5
200 200 200 200.0 -6.0 8.0 13.0 0.5
200 200 200 200.0 -6.0 8.0 15.0 0.5
200 200 200 200.0 -6.0 8.0 17.0 0.5
200 200 200 200.0 -6.0 8.0 19.0 0.5
200 200 200 200.0 -6.0 8.0 21.0 0.5
200 200 200 200.0 -4.0 -10.0 3.0 0.5
200 200 200 200.0 -4.0 -10.0 5.0 0.5
200 200 200 200.0 -4.0 -10.0 7.0 0.5
200 200 200 200.0 -4.0 -10.0 9.0 0.5
200 200 200 200.0 -4.0 -10.0 11.0 0.5
200 200 200 200.0 -4.0 -10.0 13.0 0.5
200 200 200 200.0 -4.0 -10.0 15.0 0.5
200 200 200 200.0 -4.0 -10.0 17.0 0.5
200 200 200 200.0 -4.0 -10.0 19.0 0.5
200 200 200 200.0 -4.0 -10.0 21.0 0.5
200 200 200 200.0 -4.0 -8.0 3.0 0.5
200 200 200 200.0 -4.0 -8.0 5.0 0.5
200 200 200 200.0 -4.0 -8.0 7.0 0.5
200 200 200 200.0 -4.0 -8.0 9.0 0.5
200 200 200 200.0 -4.0 -8.0 11.0 0.5
200 200 200 200.0 -4.0 -8.0 13.0 0.5
200 200 200 200.0 -4.0 -8.0 15.0 0.5
200 200 200 200.0 -4.0 -8.0 17.0 0.5
200 200 200 200.0 -4.0 -8.0 19.0 0.5
200 200 200 200.0 -4.0 -8.0 21.0 0.5
200 200 200 200.0 -4.0 -6.0 3.0 0.5
200 200 200 200.0 -4.0 -6.0 5.0 0.5
200 200 200 200.0 -4.0 -6.0 7.0 0.5
200 200 200 200.0 -4.0 -6.0 9.0 0.5
200 200 200 200.0 -4.0 -6.0 11.0 0.5
200 200 200 200.0 -4.0 -6.0 13.0 0.5
200 200 200 200.0 -4.0 -6.0 15.0 0.5
200 200 200 200.0 -4.0 -6.0 17.0 0.5
200 200 200 200.0 -4.0 -6.0 19.0 0.5
200 200 200 200.0 -4.0 -6.0 21.0 0.5
200 200 200 200.0 -4.0 -4.0 3.0 0.5
200 200 200 200.0 -4.0 -4.0 5.0 0.5
200 200 200 200.0 -4.0 -4.0 7.0 0.5
200 200 200 200.0 -4.0 -4.0 9.0 0.5
200 200 200 200.0 -4.0 -4.0 11.0 0.5
200 200 200 200.0 -4.0 -4.0 13.0 0.5
200 200 200 200.0 -4.0 -4.0 15.0 0.5
200 200 200 200.0 -4.0 -4.0 17.0 0.5
200 200 200 200.0 -4.0 -4.0 19.0 0.5
200 200 200 200.0 -4.0 -4.0 21.0 0.5
200 200 200 200.0 -4.0 -2.0 3.0 0.5
200 200 200 200.0 -4.0 -2.0 5.0 0.5
200 200 200 200.0 -4.0 -2.0 7.0 0.5
200 200 200 200.0 -4.0 -2.0 9.0 0.5
200 200 200 200.0 -4.0 -2.0 11.0 0.5
200 200 200 200.0 -4.0 -2.0 13.0 0.5
200 200 200 200.0 -4.0 -2.0 15.0 0.5
200 200 200 200.0 -4.0 -2.0 17.0 0.5
200 200 200 200.0 -4.0 -2.0 19.0 0.5
200 200 200 200.0 -4.0 -2.0 21.0 0.5
200 200 200 200.0 -4.0 0.0 3.0 0.5
200 200 200 200.0 -4.0 0.0 5.0 0.5
200 200 200 200.0 -4.0 0.0 7.0 0.5
200 200 200 200.0 -4.0 0.0 9.0 0.5
200 200 200 200.0 -4.0 0.0 11.0 0.5
200 200 200 200.0 -4.0 0.0 13.0 0.5
200 200 200 200.0 -4.0 0.0 15.0 0.5
200 200 200 200.0 -4.0 0.0 17.0 0.5
200 200 200 200.0 -4.0 0.0 19.0 0.5
200 200 200 200.0 -4.0 0.0 21.0 0.5
200 200 200 200.0 -4.0 2.0 3.0 0.5
200 200 200 200.0 -4.0 2.0 5.0 0.5
200 200 200 200.0 -4.0 2.0 7.0 0.5
200 200 200 200.0 -4.0 2.0 9.0 0.5
200 200 200 200.0 -4.0 2.0 11.0 0.5
200 200 200 200.0 -4.0 2.0 13.0 0.5
200 200 200 200.0 -4.0 2.0 15.0 0.5
200 200 200 200.0 -4.0 2.0 17.0 0.5
200 200 200 200.0 -4.0 2.0 19.0 0.5
200 200 200 200.0 -4.0 2.0 21.0 0.5
200 200 200 200.0 -4.0 4.0 3.0 0.5
200 200 200 200.0 -4.0 4.0 5.0 0.5
200 200 200 200.0 -4.0 4.0 7.0 0.5
200 200 200 200.0 -4.0 4.0 9.0 0.5
200 200 200 200.0 -4.0 4.0 11.0 0.5
200 200 200 200.0 -4.0 4.0 13.0 0.5
200 200 200 200.0 -4.0 4.0 15.0 0.5
200 200 200 200.0 -4.0 4.0 17.0 0.5
200 200 200 200.0 -4.0 4.0 19.0 0.5
200 200 200 200.0 -4.0 4.0 21.0 0.5
200 200 200 200.0 -4.0 6.0 3.0 0.5
200 200 200 200.0 -4.0 6.0 5.0 0.5
200 200 200 200.0 -4.0 6.0 7.0 0.5
200 200 200 200.0 -4.0 6.0 9.0 0.5
200 200 200 200.0 -4.0 6.0 11.0 0.5
200 200 200 200.0 -4.0 6.0 13.0 0.5
200 200 200 200.0 -4.0 6.0 15.0 0.5
200 200 200 200.0 -4.0 6.0 17.0 0.5
200 200 200 200.0 -4.0 6.0 19.0 0.5
200 200 200 200.0 -4.0 6.0 21.0 0.5
200 200 200 200.0 -4.0 8.0 3.0 0.5
200 200 200 200.0 -4.0 8.0 5.0 0.5
200 200 200 200.0 -4.0 8.0 7.0 0.5
200 200 200 200.0 -4.0 8.0 9.0 0.5
200 200 200 200.0 -4.0 8.0 11.0 0.5
200 200 200 200.0 -4.0 8.0 13.0 0.5
200 200 200 200.0 -4.0 8.0 15.0 0.5
200 200 200 200.0 -4.0 8.0 17.0 0.5
200 200 200 200.0 -4.0 8.0 19.0 0.5
200 200 200 200.0 -4.0 8.0 21.0 0.5
200 200 200 200.0 -2.0 -10.0 3.0 0.5
200 200 200 200.0 -2.0 -10.0 5.0 0.5
200 200 200 200.0 -2.0 -10.0 7.0 0.5
200 200 200 200.0 -2.0 -10.0 9.0 0.5
200 200 200 200.0 -2.0 -10.0 11.0 0.5
200 200 200 200.0 -2.0 -10.0 13.0 0.5
200 200 200 200.0 -2.0 -10.0 15.0 0.5
200 200 200 200.0 -2.0 -10.0 17.0 0.5
200 200 200 200.0 -2.0 -10.0 19.0 0.5
200 200 200 200.0 -2.0 -10.0 21.0 0.5
200 200 200 200.0 -2.0 -8.0 3.0 0.5
200 200 200 200.0 -2.0 -8.0 5.0 0.5
200 200 200 200.0 -2.0 -8.0 7.0 0.5
200 200 200 200.0 -2.0 -8.0 9.0 0.5
200 200 200 200.0 -2.0 -8.0 11.0 0.5
200 200 200 200.0 -2.0 -8.0 13.0 0.5
200 200 200 200.0 -2.0 -8.0 15.0 0.5
200 200 200 200.0 -2.0 -8.0 17.0 0.5
200 200 200 200.0 -2.0 -8.0 19.0 0.5
200 200 200 200.0 -2.0 -8.0 21.0 0.5
200 200 200 200.0 -2.0 -6.0 3.0 0.5
200 200 200 200.0 -2.0 -6.0 5.0 0.5
200 200 200 200.0 -2.0 -6.0 7.0 0.5
200 200 200 200.0 -2.0 -6.0 9.0 0.5
200 200 200 200.0 -2.0 -6.0 11.0 0.5
200 200 200 200.0 -2.0 -6.0 13.0 0.5
200 200 200 200.0 -2.0 -6.0 15.0 0.5
200 200 200 200.0 -2.0 -6.0 17.0 0.5
200 200 200 200.0 -2.0 -6.0 19.0 0.5
200 200 200 200.0 -2.0 -6.0 21.0 0.5
200 200 200 200.0 -2.0 -4.0 3.0 0.5
200 200 200 200.0 -2.0 -4.0 5.0 0.5
200 200 200 200.0 -2.0 -4.0 7.0 0.5
200 200 200 200.0 -2.0 -4.0 9.0 0.5
200 200 200 200.0 -2.0 -4.0 11.0 0.5
200 200 200 200.0 -2.0 -4.0 13.0 0.5
200 200 200 200.0 -2.0 -4.0 15.0 0.5
200 200 200 200.0 -2.0 -4.0 17.0 0.5
200 200 200 200.0 -2.0 -4.0 19.0 0.5
200 200 200 200.0 -2.0 -4.0 21.0 0.5
200 200 200 200.0 -2.0 -2.0 3.0 0.5
200 200 200 200.0 -2.0 -2.0 5.0 0.5
200 200 200 200.0 -2.0 -2.0 7.0 0.5
200 200 200 200.0 -2.0 -2.0 9.0 0.5
200 200 200 200.0 -2.0 -2.0 11.0 0.5
200 200 200 200.0 -2.0 -2.0 13.0 0.5
200 200 200 200.0 -2.0 -2.0 15.0 0.5
200 200 200 200.0 -2.0 -2.0 17.0 0.5
200 200 200 200.0 -2.0 -2.0 19.0 0.5
200 200 200 200.0 -2.0 -2.0 21.0 0.5
200 200 200 200.0 -2.0 0.0 3.0 0.5
200 200 200 200.0 -2.0 0.0 5.0 0.5
200 200 200 200.0 -2.0 0.0 7.0 0.5
200 200 200 200.0 -2.0 0.0 9.0 0.5
200 200 200 200.0 -2.0 0.0 11.0 0.5
200 200 200 200.0 -2.0 0.0 13.0 0.5
200 200 200 200.0 -2.0 0.0 15.0 0.5
200 200 200 200.0 -2.0 0.0 17.0 0.5
200 200 200 200.0 -2.0 0.0 19.0 0.5
200 200 200 200.0 -2.0 0.0 21.0 0.5
200 200 200 200.0 -2.0 2.0 3.0 0.5
200 200 200 200.0 -2.0 2.0 5.0 0.5
200 200 200 200.0 -2.0 2.0 7.0 0.5
200 200 200 200.0 -2.0 2.0 9.0 0.5
200 200 200 200.0 -2.0 2.0 11.0 0.5
200 200 200 200.0 -2.0 2.0 13.0 0.5
200 200 200 200.0 -2.0 2.0 15.0 0.5
200 200 200 200.0 -2.0 2.0 17.0 0.5
200 200 200 200.0 -2.0 2.0 19.0 0.5
200 200 200 200.0 -2.0 2.0 21.0 0.5
200 200 200 200.0 -2.0 4.0 3.0 0.5
200 200 200 200.0 -2.0 4.0 5.0 0.5
200 200 200 200.0 -2.0 4.0 7.0 0.5
200 200 200 200.0 -2.0 4.0 9.0 0.5
200 200 200 200.0 -2.0 4.0 11.0 0.5
200 200 200 200.0 -2.0 4.0 13.0 0.5
200 200 200 200.0 -2.0 4.0 15.0 0.5
200 200 200 200.0 -2.0 4.0 17.0 0.5
200 200 200 200.0 -2.0 4.0 19.0 0.5
200 200 200 200.0 -2.0 4.0 21.0 0.5
200 200 200 200.0 -2.0 6.0 3.0 0.5
200 200 200 200.0 -2.0 6.0 5.0 0.5
200 200 200 200.0 -2.0 6.0 7.0 0.5
200 200 200 200.0 -2.0 6.0 9.0 0.5
200 200 200 200.0 -2.0 6.0 11.0 0.5
200 200 200 200.0 -2.0 6.0 13.0 0.5
200 200 200 200.0 -2.0 6.0 15.0 0.5
200 200 200 200.0 -2.0 6.0 17.0 0.5
200 200 200 200.0 -2.0 6.0 19.0 0.5
200 200 200 200.0 -2.0 6.0 21.0 0.5
200 200 200 200.0 -2.0 8.0 3.0 0.5
200 200 200 200.0 -2.0 8.0 5.0 0.5
200 200 200 200.0 -2.0 8.0 7.0 0.5
200 200 200 200.0 -2.0 8.0 9.0 0.5
200 200 200 200.0 -2.0 8.0 11.0 0.5
200 200 200 200.0 -2.0 8.0 13.0 0.5
200 200 200 200.0 -2.0 8.0 15.0 0.5
200 200 200 200.0 -2.0 8.0 17.0 0.5
200 200 200 200.0 -2.0 8.0 19.0 0.5
200 200 200 200.0 -2.0 8.0 21.0 0.5
200 200 200 200.0 0.0 -10.0 3.0 0.5
200 200 200 200.0 0.0 -10.0 5.0 0.5
200 200 200 200.0 0.0 -10.0 7.0 0.5
200 200 200 200.0 0.0 -10.0 9.0 0.5
200 200 200 200.0 0.0 -10.0 11.0 0.5
200 200 200 200.0 0.0 -10.0 13.0 0.5
200 200 200 200.0 0.0 -10.0 15.0 0.5
200 200 200 200.0 0.0 -10.0 17.0 0.5
200 200 200 200.0 0.0 -10.0 19.0 0.5
200 200 200 200.0 0.0 -10.0 21.0 0.5
200 200 200 200.0 0.0 -8.0 3.0 0.5
200 200 200 200.0 0.0 -8.0 5.0 0.5
200 200 200 200.0 0.0 -8.0 7.0 0.5
200 200 200 200.0 0.0 -8.0 9.0 0.5
200 200 200 200.0 0.0 -8.0 11.0 0.5
200 200 200 200.0 0.0 -8.0 13.0 0.5
200 200 200 200.0 0.0 -8.0 15.0 0.5
200 200 200 200.0 0.0 -8.0 17.0 0.5
200 200 200 200.0 0.0 -8.0 19.0 0.5
200 200 200 200.0 0.0 -8.0 21.0 0.5
200 200 200 200.0 0.0 -6.0 3.0 0.5
200 200 200 200.0 0.0 -6.0 5.0 0.5
200 200 200 200.0 0.0 -6.0 7.0 0.5
200 200 200 200.0 0.0 -6.0 9.0 0.5
200 200 200 200.0 0.0 -6.0 11.0 0.5
200 200 200 200.0 0.0 -6.0 13.0 0.5
200 200 200 200.0 0.0 -6.0 15.0 0.5
200 200 200 200.0 0.0 -6.0 17.0 0.5
200 200 200 200.0 0.0 -6.0 19.0 0.5
200 200 200 200.0 0.0 -6.0 21.0 0.5
200 200 200 200.0 0.0 -4.0 3.0 0.5
200 200 200 200.0 0.0 -4.0 5.0 0.5
200 200 200 200.0 0.0 -4.0 7.0 0.5
200 200 200 200.0 0.0 -4.0 9.0 0.5
200 200 200 200.0 0.0 -4.0 11.0 0.5
200 200 200 200.0 0.0 -4.0 13.0 0.5
200 200 200 200.0 0.0 -4.0 15.0 0.5
200 200 200 200.0 0.0 -4.0 17.0 0.5
200 200 200 200.0 0.0 -4.0 19.0 0.5
200 200 200 200.0 0.0 -4.0 21.0 0.5
200 200 200 200.0 0.0 -2.0 3.0 0.5
200 200 200 200.0 0.0 -2.0 5.0 0.5
200 200 200 200.0 0.0 -2.0 7.0 0.5
200 200 200 200.0 0.0 -2.0 9.0 0.5
200 200 200 200.0 0.0 -2.0 11.0 0.5
200 200 200 200.0 0.0 -2.0 13.0 0.5
200 200 200 200.0 0.0 -2.0 15.0 0.5
200 200 200 200.0 0.0 -2.0 17.0 0.5
200 200 200 200.0 0.0 -2.0 19.0 0.5
200 200 200 200.0 0.0 -2.0 21.0 0.5
200 200 200 200.0 0.0 0.0 3.0 0.5
200 200 200 200.0 0.0 0.0 5.0 0.5
200 200 200 200.0 0.0 0.0 7.0 0.5
200 200 200 200.0 0.0 0.0 9.0 0.5
200 200 200 200.0 0.0 0.0 11.0 0.5
200 200 200 200.0 0.0 0.0 13.0 0.5
200 200 200 200.0 0.0 0.0 15.0 0.5
200 200 200 200.0 0.0 0.0 17.0 0.5
200 200 200 200.0 0.0 0.0 19.0 0.5
200 200 200 200.0 0.0 0.0 21.0 0.5
200 200 200 200.0 0.0 2.0 3.0 0.5
200 200 200 200.0 0.0 2.0 5.0 0.5
200 200 200 200.0 0.0 2.0 7.0 0.5
200 200 200 200.0 0.0 2.0 9.0 0.5
200 200 200 200.0 0.0 2.0 11.0 0.5
200 200 200 200.0 0.0 2.0 13.0 0.5
200 200 200 200.0 0.0 2.0 15.0 0.5
200 200 200 200.0 0.0 2.0 17.0 0.5
200 200 200 200.0 0.0 2.0 19.0 0.5
200 200 200 200.0 0.0 2.0 21.0 0.5
200 200 200 200.0 0.0 4.0 3.0 0.5
200 200 200 200.0 0.0 4.0 5.0 0.5
200 200 200 200.0 0.0 4.0 7.0 0.5
200 200 200 200.0 0.0 4.0 9.0 0.5
200 200 200 200.0 0.0 4.0 11.0 0.5
200 200 200 200.0 0.0 4.0 13.0 0.5
200 200 200 200.0 0.0 4.0 15.0 0.5
200 200 200 200.0 0.0 4.0 17.0 0.5
200 200 200 200.0 0.0 4.0 19.0 0.5
200 200 200 200.0 0.0 4.0 21.0 0.5
200 200 200 200.0 0.0 6.0 3.0 0.5
200 200 200 200.0 0.0 6.0 5.0 0.5
200 200 200 200.0 0.0 6.0 7.0 0.5
200 200 200 200.0 0.0 6.0 9.0 0.5
200 200 200 200.0 0.0 6.0 11.0 0.5
200 200 200 200.0 0.0 6.0 13.0 0.5
200 200 200 200.0 0.0 6.0 15.0 0.5
200 200 200 200.0 0.0 6.0 17.0 0.5
200 200 200 200.0 0.0 6.0 19.0 0.5
200 200 200 200.0 0.0 6.0 21.0 0.5
200 200 200 200.0 0.0 8.0 3.0 0.5
200 200 200 200.0 0.0 8.0 5.0 0.5
200 200 200 200.0 0.0 8.0 7.0 0.5
200 200 200 200.0 0.0 8.0 9.0 0.5
200 200 200 200.0 0.0 8.0 11.0 0.5
200 200 200 200.0 0.0 8.0 13.0 0.5
200 200 200 200.0 0.0 8.0 15.0 0.5
200 200 200 200.0 0.0 8.0 17.0 0.5
200 200 200 200.0 0.0 8.0 19.0 0.5
200 200 200 200.0 0.0 8.0 21.0 0.5
200 200 200 200.0 2.0 -10.0 3.0 0.5
200 200 200 200.0 2.0 -10.0 5.0 0.5
200 200 200 200.0 2.0 -10.0 7.0 0.5
200 200 200 200.0 2.0 -10.0 9.0 0.5
200 200 200 200.0 2.0 -10.0 11.0 0.5
200 200 200 200.0 2.0 -10.0 13.0 0.5
200 200 200 200.0 2.0 -10.0 15.0 0.5
200 200 200 200.0 2.0 -10.0 17.0 0.5
200 200 200 200.0 2.0 -10.0 19.0 0.5
200 200 200 200.0 2.0 -10.0 21.0 0.5
200 200 200 200.0 2.0 -8.0 3.0 0.5
200 200 200 200.0 2.0 -8.0 5.0 0.5
200 200 200 200.0 2.0 -8.0 7.0 0.5
200 200 200 200.0 2.0 -8.0 9.0 0.5
200 200 200 200.0 2.0 -8.0 11.0 0.5
200 200 200 200.0 2.0 -8.0 13.0 0.5
200 200 200 200.0 2.0 -8.0 15.0 0.5
200 200 200 200.0 2.0 -8.0 17.0 0.5
200 200 200 200.0 2.0 -8.0 19.0 0.5
200 200 200 200.0 2.0 -8.0 21.0 0.5
200 200 200 200.0 2.0 -6.0 3.0 0.5
200 200 200 200.0 2.0 -6.0 5.0 0.5
200 200 200 200.0 2.0 -6.0 7.0 0.5
200 200 200 200.0 2.0 -6.0 9.0 0.5
200 200 200 200.0 2.0 -6.0 11.0 0.5
200 200 200 200.0 2.0 -6.0 13.0 0.5
200 200 200 200.0 2.0 -6.0 15.0 0.5
200 200 200 200.0 2.0 -6.0 17.0 0.5
200 200 200 200.0 2.0 -6.0 19.0 0.5
200 200 200 200.0 2.0 -6.0 21.0 0.5
200 200 200 200.0 2.0 -4.0 3.0 0.5
200 200 200 200.0 2.0 -4.0 5.0 0.5
200 200 200 200.0 2.0 -4.0 7.0 0.5
200 200 200 200.0 2.0 -4.0 9.0 0.5
200 200 200 200.0 2.0 -4.0 11.0 0.5
200 200 200 200.0 2.0 -4.0 13.0 0.5
200 200 200 200.0 2.0 -4.0 15.0 0.5
200 200 200 200.0 2.0 -4.0 17.0 0.5
200 200 200 200.0 2.0 -4.0 19.0 0.5
200 200 200 200.0 2.0 -4.0 21.0 0.5
200 200 200 200.0 2.0 -2.0 3.0 0.5
200 200 200 200.0 2.0 -2.0 5.0 0.5
200 200 200 200.0 2.0 -2.0 7.0 0.5
200 200 200 200.0 2.0 -2.0 9.0 0.5
200 200 200 200.0 2.0 -2.0 11.0 0.5
200 200 200 200.0 2.0 -2.0 13.0 0.5
200 200 200 200.0 2.0 -2.0 15.0 0.5
200 200 200 200.0 2.0 -2.0 17.0 0.5
200 200 200 200.0 2.0 -2.0 19.0 0.5
200 200 200 200.0 2.0 -2.0 21.0 0.5
200 200 200 200.0 2.0 0.0 3.0 0.5
200 200 200 200.0 2.0 0.0 5.0 0.5
200 200 200 200.0 2.0 0.0 7.0 0.5
200 200 200 200.0 2.0 0.0 9.0 0.5
200 200 200 200.0 2.0 0.0 11.0 0.5
200 200 200 200.0 2.0 0.0 13.0 0.5
200 200 200 200.0 2.0 0.0 15.0 0.5
200 200 200 200.0 2.0 0.0 17.0 0.5
200 200 200 200.0 2.0 0.0 19.0 0.5
200 200 200 200.0 2.0 0.0 21.0 0.5
200 200 200 200.0 2.0 2.0 3.0 0.5
200 200 200 200.0 2.0 2.0 5.0 0.5
200 200 200 200.0 2.0 2.0 7.0 0.5
200 200 200 200.0 2.0 2.0 9.0 0.5
200 200 200 200.0 2.0 2.0 11.0 0.5
200 200 200 200.0 2.0 2.0 13.0 0.5
200 200 200 200.0 2.0 2.0 15.0 0.5
200 200 200 200.0 2.0 2.0 17.0 0.5
200 200 200 200.0 2.0 2.0 19.0 0.5
200 200 200 200.0 2.0 2.0 21.0 0.5
200 200 200 200.0 2.0 4.0 3.0 0.5
200 200 200 200.0 2.0 4.0 5.0 0.5
200 200 200 200.0 2.0 4.0 7.0 0.5
200 200 200 200.0 2.0 4.0 9.0 0.5
200 200 200 200.0 2.0 4.0 11.0 0.5
200 200 200 200.0 2.0 4.0 13.0 0.5
200 200 200 200.0 2.0 4.0 15.0 0.5
200 200 200 200.0 2.0 4.0 17.0 0.5
200 200 200 200.0 2.0 4.0 19.0 0.5
200 200 200 200.0 2.0 4.0 21.0 0.5
200 200 200 200.0 2.0 6.0 3.0 0.5
200 200 200 200.0 2.0 6.0 5.0 0.5
200 200 200 200.0 2.0 6.0 7.0 0.5
200 200 200 200.0 2.0 6.0 9.0 0.5
200 200 200 200.0 2.0 6.0 11.0 0.5
200 200 200 200.0 2.0 6.0 13.0 0.5
200 200 200 200.0 2.0 6.0 15.0 0.5
200 200 200 200.0 2.0 6.0 17.0 0.5
200 200 200 200.0 2.0 6.0 19.0 0.5
200 200 200 200.0 2.0 6.0 21.0 0.5
200 200 200 200.0 2.0 8.0 3.0 0.5
200 200 200 200.0 2.0 8.0 5.0 0.5
200 200 200 200.0 2.0 8.0 7.0 0.5
200 200 200 200.0 2.0 8.0 9.0 0.5
200 200 200 200.0 2.0 8.0 11.0 0.5
200 200 200 200.0 2.0 8.0 13.0 0.5
200 200 200 200.0 2.0 8.0 15.0 0.5
200 200 200 200.0 2.0 8.0 17.0 0.5
200 200 200 200.0 2.0 8.0 19.0 0.5
200 200 200 200.0 2.0 8.0 21.0 0.5
200 200 200 200.0 4.0 -10.0 3.0 0.5
200 200 200 200.0 4.0 -10.0 5.0 0.5
200 200 200 200.0 4.0 -10.0 7.0 0.5
200 200 200 200.0 4.0 -10.0 9.0 0.5
200 200 200 200.0 4.0 -10.0 11.0 0.5
200 200 200 200.0 4.0 -10.0 13.0 0.5
200 200 200 200.0 4.0 -10.0 15.0 0.5
200 200 200 200.0 4.0 -10.0 17.0 0.5
200 200 200 200.0 4.0 -10.0 19.0 0.5
200 200 200 200.0 4.0 -10.0 21.0 0.5
200 200 200 200.0 4.0 -8.0 3.0 0.5
200 200 200 200.0 4.0 -8.0 5.0 0.5
200 200 200 200.0 4.0 -8.0 7.0 0.5
200 200 200 200.0 4.0 -8.0 9.0 0.5
200 200 200 200.0 4.0 -8.0 11.0 0.5
200 200 200 200.0 4.0 -8.0 13.0 0.5
200 200 200 200.0 4.0 -8.0 15.0 0.5
200 200 200 200.0 4.0 -8.0 17.0 0.5
200 200 200 200.0 4.0 -8.0 19.0 0.5
200 200 200 200.0 4.0 -8.0 21.0 0.5
200 200 200 200.0 4.0 -6.0 3.0 0.5
200 200 200 200.0 4.0 -6.0 5.0 0.5
200 200 200 200.0 4.0 -6.0 7.0 0.5
200 200 200 200.0 4.0 -6.0 9.0 0.5
200 200 200 200.0 4.0 -6.0 11.0 0.5
200 200 200 200.0 4.0 -6.0 13.0 0.5
200 200 200 200.0 4.0 -6.0 15.0 0.5
200 200 200 200.0 4.0 -6.0 17.0 0.5
200 200 200 200.0 4.0 -6.0 19.0 0.5
200 200 200 200.0 4.0 -6.0 21.0 0.5
200 200 200 200.0 4.0 -4.0 3.0 0.5
200 200 200 200.0 4.0 -4.0 5.0 0.5
200 200 200 200.0 4.0 -4.0 7.0 0.5
200 200 200 200.0 4.0 -4.0 9.0 0.5
200 200 200 200.0 4.0 -4.0 11.0 0.5
200 200 200 200.0 4.0 -4.0 13.0 0.5
200 200 200 200.0 4.0 -4.0 15.0 0.5
200 200 200 200.0 4.0 -4.0 17.0 0.5
200 200 200 200.0 4.0 -4.0 19.0 0.5
200 200 200 200.0 4.0 -4.0 21.0 0.5
200 200 200 200.0 4.0 -2.0 3.0 0.5
200 200 200 200.0 4.0 -2.0 5.0 0.5
200 200 200 200.0 4.0 -2.0 7.0 0.5
200 200 200 200.0 4.0 -2.0 9.0 0.5
200 200 200 200.0 4.0 -2.0 11.0 0.5
200 200 200 200.0 4.0 -2.0 13.0 0.5
200 200 200 200.0 4.0 -2.0 15.0 0.5
200 200 200 200.0 4.0 -2.0 17.0 0.5
200 200 200 200.0 4.0 -2.0 19.0 0.5
200 200 200 200.0 4.0 -2.0 21.0 0.5
200 200 200 200.0 4.0 0.0 3.0 0.5
200 200 200 200.0 4.0 0.0 5.0 0.5
200 200 200 200.0 4.0 0.0 7.0 0.5
200 200 200 200.0 4.0 0.0 9.0 0.5
200 200 200 200.0 4.0 0.0 11.0 0.5
200 200 200 200.0 4.0 0.0 13.0 0.5
200 200 200 200.0 4.0 0.0 15.0 0.5
200 200 200 200.0 4.0 0.0 17.0 0.5
200 200 200 200.0 4.0 0.0 19.0 0.5
200 200 200 200.0 4.0 0.0 21.0 0.5
200 200 200 200.0 4.0 2.0 3.0 0.5
200 200 200 200.0 4.0 2.0 5.0 0.5
200 200 200 200.0 4.0 2.0 7.0 0.5
200 200 200 200.0 4.0 2.0 9.0 0.5
200 200 200 200.0 4.0 2.0 11.0 0.5
200 200 200 200.0 4.0 2.0 13.0 0.5
200 200 200 200.0 4.0 2.0 15.0 0.5
200 200 200 200.0 4.0 2.0 17.0 0.5
200 200 200 200.0 4.0 2.0 19.0 0.5
200 200 200 200.0 4.0 2.0 21.0 0.5
200 200 200 200.0 4.0 4.0 3.0 0.5
200 200 200 200.0 4.0 4.0 5.0 0.5
200 200 200 200.0 4.0 4.0 7.0 0.5
200 200 200 200.0 4.0 4.0 9.0 0.5
200 200 200 200.0 4.0 4.0 11.0 0.5
200 200 200 200.0 4.0 4.0 13.0 0.5
200 200 200 200.0 4.0 4.0 15.0 0.5
200 200 200 200.0 4.0 4.0 17.0 0.5
200 200 200 200.0 4.0 4.0 19.0 0.5
200 200 200 200.0 4.0 4.0 21.0 0.5
200 200 200 200.0 4.0 6.0 3.0 0.5
200 200 200 200.0 4.0 6.0 5.0 0.5
200 200 200 200.0 4.0 6.0 7.0 0.5
200 200 200 200.0 4.0 6.0 9.0 0.5
200 200 200 200.0 4.0 6.0 11.0 0.5
200 200 200 200.0 4.0 6.0 13.0 0.5
200 200 200 200.0 4.0 6.0 15.0 0.5
200 200 200 200.0 4.0 6.0 17.0 0.5
200 200 200 200.0 4.0 6.0 19.0 0.5
200 200 200 200.0 4.0 6.0 21.0 0.5
200 200 200 200.0 4.0 8.0 3.0 0.5
200 200 200 200.0 4.0 8.0 5.0 0.5
200 200 200 200.0 4.0 8.0 7.0 0.5
200 200 200 200.0 4.0 8.0 9.0 0.5
200 200 200 200.0 4.0 8.0 11.0 0.5
200 200 200 200.0 4.0 8.0 13.0 0.5
200 200 200 200.0 4.0 8.0 15.0 0.5
200 200 200 200.0 4.0 8.0 17.0 0.5
200 200 200 200.0 4.0 8.0 19.0 0.5
200 200 200 200.0 4.0 8.0 21.0 0.5
200 200 200 200.0 6.0 -10.0 3.0 0.5
200 200 200 200.0 6.0 -10.0 5.0 0.5
200 200 200 200.0 6.0 -10.0 7.0 0.5
200 200 200 200.0 6.0 -10.0 9.0 0.5
200 200 200 200.0 6.0 -10.0 11.0 0.5
200 200 200 200.0 6.0 -10.0 13.0 0.5
200 200 200 200.0 6.0 -10.0 15.0 0.5
200 200 200 200.0 6.0 -10.0 17.0 0.5
200 200 200 200.0 6.0 -10.0 19.0 0.5
200 200 200 200.0 6.0 -10.0 21.0 0.5
200 200 200 200.0 6.0 -8.0 3.0 0.5
200 200 200 200.0 6.0 -8.0 5.0 0.5
200 200 200 200.0 6.0 -8.0 7.0 0.5
200 200 200 200.0 6.0 -8.0 9.0 0.5
200 200 200 200.0 6.0 -8.0 11.0 0.5
200 200 200 200.0 6.0 -8.0 13.0 0.5
200 200 200 200.0 6.0 -8.0 15.0 0.5
200 200 200 200.0 6.0 -8.0 17.0 0.5
200 200 200 200.0 6.0 -8.0 19.0 0.5
200 200 200 200.0 6.0 -8.0 21.0 0.5
200 200 200 200.0 6.0 -6.0 3.0 0.5
200 200 200 200.0 6.0 -6.0 5.0 0.5
200 200 200 200.0 6.0 -6.0 7.0 0.5
200 200 200 200.0 6.0 -6.0 9.0 0.5
200 200 200 200.0 6.0 -6.0 11.0 0.5
200 200 200 200.0 6.0 -6.0 13.0 0.5
200 200 200 200.0 6.0 -6.0 15.0 0.5
200 200 200 200.0 6.0 -6.0 17.0 0.5
200 200 200 200.0 6.0 -6.0 19.0 0.5
200 200 200 200.0 6.0 -6.0 21.0 0.5
200 200 200 200.0 6.0 -4.0 3.0 0.5
200 200 200 200.0 6.0 -4.0 5.0 0.5
200 200 200 200.0 6.0 -4.0 7.0 0.5
200 200 200 200.0 6.0 -4.0 9.0 0.5
200 200 200 200.0 6.0 -4.0 11.0 0.5
200 200 200 200.0 6.0 -4.0 13.0 0.5
200 200 200 200.0 6.0 -4.0 15.0 0.5
200 200 200 200.0 6.0 -4.0 17.0 0.5
200 200 200 200.0 6.0 -4.0 19.0 0.5
200 200 200 200.0 6.0 -4.0 21.0 0.5
200 200 200 200.0 6.0 -2.0 3.0 0.5
200 200 200 200.0 6.0 -2.0 5.0 0.5
200 200 200 200.0 6.0 -2.0 7.0 0.5
200 200 200 200.0 6.0 -2.0 9.0 0.5
200 200 200 200.0 6.0 -2.0 11.0 0.5
200 200 200 200.0 6.0 -2.0 13.0 0.5
200 200 200 200.0 6.0 -2.0 15.0 0.5
200 200 200 200.0 6.0 -2.0 17.0 0.5
200 200 200 200.0 6.0 -2.0 19.0 0.5
200 200 200 200.0 6.0 -2.0 21.0 0.5
200 200 200 200.0 6.0 0.0 3.0 0.5
200 200 200 200.0 6.0 0.0 5.0 0.5
200 200 200 200.0 6.0 0.0 7.0 0.5
200 200 200 200.0 6.0 0.0 9.0 0.5
200 200 200 200.0 6.0 0.0 11.0 0.5
200 200 200 200.0 6.0 0.0 13.0 0.5
200 200 200 200.0 6.0 0.0 15.0 0.5
200 200 200 200.0 6.0 0.0 17.0 0.5
200 200 200 200.0 6.0 0.0 19.0 0.5
200 200 200 200.0 6.0 0.0 21.0 0.5
200 200 200 200.0 6.0 2.0 3.0 0.5
200 200 200 200.0 6.0 2.0 5.0 0.5
200 200 200 200.0 6.0 2.0 7.0 0.5
200 200 200 200.0 6.0 2.0 9.0 0.5
200 200 200 200.0 6.0 2.0 11.0 0.5
200 200 200 200.0 6.0 2.0 13.0 0.5
200 200 200 200.0 6.0 2.0 15.0 0.5
200 200 200 200.0 6.0 2.0 17.0 0.5
200 200 200 200.0 6.0 2.0 19.0 0.5
200 200 200 200.0 6.0 2.0 21.0 0.5
200 200 200 200.0 6.0 4.0 3.0 0.5
200 200 200 200.0 6.0 4.0 5.0 0.5
200 200 200 200.0 6.0 4.0 7.0 0.5
200 200 200 200.0 6.0 4.0 9.0 0.5
200 200 200 200.0 6.0 4.0 11.0 0.5
200 200 200 200.0 6.0 4.0 13.0 0.5
200 200 200 200.0 6.0 4.0 15.0 0.5
200 200 200 200.0 6.0 4.0 17.0 0.5
200 200 200 200.0 6.0 4.0 19.0 0.5
200 200 200 200.0 6.0 4.0 21.0 0.5
200 200 200 200.0 6.0 6.0 3.0 0.5
200 200 200 200.0 6.0 6.0 5.0 0.5
200 200 200 200.0 6.0 6.0 7.0 0.5
200 200 200 200.0 6.0 6.0 9.0 0.5
200 200 200 200.0 6.0 6.0 11.0 0.5
200 200 200 200.0 6.0 6.0 13.0 0.5
200 200 200 200.0 6.0 6.0 15.0 0.5
200 200 200 200.0 6.0 6.0 17.0 0.5
200 200 200 200.0 6.0 6.0 19.0 0.5
200 200 200 200.0 6.0 6.0 21.0 0.5
200 200 200 200.0 6.0 8.0 3.0 0.5
200 200 200 200.0 6.0 8.0 5.0 0.5
200 200 200 200.0 6.0 8.0 7.0 0.5
200 200 200 200.0 6.0 8.0 9.0 0.5
200 200 200 200.0 6.0 8.0 11.0 0.5
200 200 200 200.0 6.0 8.0 13.0 0.5
200 200 200 200.0 6.0 8.0 15.0 0.5
200 200 200 200.0 6.0 8.0 17.0 0.5
200 200 200 200.0 6.0 8.0 19.0 0.5
200 200 200 200.0 6.0 8.0 21.0 0.5
200 200 200 200.0 8.0 -10.0 3.0 0.5
200 200 200 200.0 8.0 -10.0 5.0 0.5
200 200 200 200.0 8.0 -10.0 7.0 0.5
200 200 200 200.0 8.0 -10.0 9.0 0.5
200 200 200 200.0 8.0 -10.0 11.0 0.5
200 200 200 200.0 8.0 -10.0 13.0 0.5
200 200 200 200.0 8.0 -10.0 15.0 0.5
200 200 200 200.0 8.0 -10.0 17.0 0.5
200 200 200 200.0 8.0 -10.0 19.0 0.5
200 200 200 200.0 8.0 -10.0 21.0 0.5
200 200 200 200.0 8.0 -8.0 3.0 0.5
200 200 200 200.0 8.0 -8.0 5.0 0.5
200 200 200 200.0 8.0 -8.0 7.0 0.5
200 200 200 200.0 8.0 -8.0 9.0 0.5
200 200 200 200.0 8.0 -8.0 11.0 0.5
200 200 200 200.0 8.0 -8.0 13.0 0.5
200 200 200 200.0 8.0 -8.0 15.0 0.5
200 200 200 200.0 8.0 -8.0 17.0 0.5
200 200 200 200.0 8.0 -8.0 19.0 0.5
200 200 200 200.0 8.0 -8.0 21.0 0.5
200 200 200 200.0 8.0 -6.0 3.0 0.5
200 200 200 200.0 8.0 -6.0 5.0 0.5
200 200 200 200.0 8.0 -6.0 7.0 0.5
200 200 200 200.0 8.0 -6.0 9.0 0.5
200 200 200 200.0 8.0 -6.0 11.0 0.5
200 200 200 200.0 8.0 -6.0 13.0 0.5
200 200 200 200.0 8.0 -6.0 15.0 0.5
200 200 200 200.0 8.0 -6.0 17.0 0.5
200 200 200 200.0 8.0 -6.0 19.0 0.5
200 200 200 200.0 8.0 -6.0 21.0 0.5
200 200 200 200.0 8.0 -4.0 3.0 0.5
200 200 200 200.0 8.0 -4.0 5.0 0.5
200 200 200 200.0 8.0 -4.0 7.0 0.5
200 200 200 200.0 8.0 -4.0 9.0 0.5
200 200 200 200.0 8.0 -4.0 11.0 0.5
200 200 200 200.0 8.0 -4.0 13.0 0.5
200 200 200 200.0 8.0 -4.0 15.0 0.5
200 200 200 200.0 8.0 -4.0 17.0 0.5
200 200 200 200.0 8.0 -4.0 19.0 0.5
200 200 200 200.0 8.0 -4.0 21.0 0.5
200 200 200 200.0 8.0 -2.0 3.0 0.5
200 200 200 200.0 8.0 -2.0 5.0 0.5
200 200 200 200.0 8.0 -2.0 7.0 0.5
200 200 200 200.0 8.0 -2.0 9.0 0.5
200 200 200 200.0 8.0 -2.0 11.0 0.5
200 200 200 200.0 8.0 -2.0 13.0 0.5
200 200 200 200.0 8.0 -2.0 15.0 0.5
200 200 200 200.0 8.0 -2.0 17.0 0.5
200 200 200 200.0 8.0 -2.0 19.0 0.5
200 200 200 200.0 8.0 -2.0 21.0 0.5
200 200 200 200.0 8.0 0.0 3.0 0.5
200 200 200 200.0 8.0 0.0 5.0 0.5
200 200 200 200.0 8.0 0.0 7.0 0.5
200 200 200 200.0 8.0 0.0 9.0 0.5
200 200 200 200.0 8.0 0.0 11.0 0.5
200 200 200 200.0 8.0 0.0 13.0 0.5
200 200 200 200.0 8.0 0.0 15.0 0.5
200 200 200 200.0 8.0 0.0 17.0 0.5
200 200 200 200.0 8.0 0.0 19.0 0.5
200 200 200 200.0 8.0 0.0 21.0 0.5
200 200 200 200.0 8.0 2.0 3.0 0.5
200 200 200 200.0 8.0 2.0 5.0 0.5
200 200 200 200.0 8.0 2.0 7.0 0.5
200 200 200 200.0 8.0 2.0 9.0 0.5
200 200 200 200.0 8.0 2.0 11.0 0.5
200 200 200 200.0 8.0 2.0 13.0 0.5
200 200 200 200.0 8.0 2.0 15.0 0.5
200 200 200 200.0 8.0 2.0 17.0 0.5
200 200 200 200.0 8.0 2.0 19.0 0.5
200 200 200 200.0 8.0 2.0 21.0 0.5
200 200 200 200.0 8.0 4.0 3.0 0.5
200 200 200 200.0 8.0 4.0 5.0 0.5
200 200 200 200.0 8.0 4.0 7.0 0.5
200 200 200 200.0 8.0 4.0 9.0 0.5
200 200 200 200.0 8.0 4.0 11.0 0.5
200 200 200 200.0 8.0 4.0 13.0 0.5
200 200 200 200.0 8.0 4.0 15.0 0.5
200 200 200 200.0 8.0 4.0 17.0 0.5
200 200 200 200.0 8.0 4.0 19.0 0.5
200 200 200 200.0 8.0 4.0 21.0 0.5
200 200 200 200.0 8.0 6.0 3.0 0.5
200 200 200 200.0 8.0 6.0 5.0 0.5
200 200 200 200.0 8.0 6.0 7.0 0.5
200 200 200 200.0 8.0 6.0 9.0 0.5
200 200 200 200.0 8.0 6.0 11.0 0.5
200 200 200 200.0 8.0 6.0 13.0 0.5
200 200 200 200.0 8.0 6.0 15.0 0.5
200 200 200 200.0 8.0 6.0 17.0 0.5
200 200 200 200.0 8.0 6.0 19.0 0.5
200 200 200 200.0 8.0 6.0 21.0 0.5
200 200 200 200.0 8.0 8.0 3.0 0.5
200 200 200 200.0 8.0 8.0 5.0 0.5
200 200 200 200.0 8.0 8.0 7.0 0.5
200 200 200 200.0 8.0 8.0 9.0 0.5
200 200 200 200.0 8.0 8.0 11.0 0.5
200 200 200 200.0 8.0 8.0 13.0 0.5
200 200 200 200.0 8.0 8.0 15.0 0.5
200 200 200 200.0 8.0 8.0 17.0 0.5
200 200 200 200.0 8.0 8.0 19.0 0.5
200 200 200 200.0 8.0 8.0 21.0 0.5
