ply
format ascii 1.0
element vertex 15
property float x
property float y
property float z
element triangle 5
property float colorR
property float colorG
property float colorB
property float gloss
property list uchar int vertex_indices
element sphere 3
property float colorR
property float colorG
property float colorB
property float gloss
property float centerX
property float centerY
property float centerZ
property float radius
end_header
-0.5 2.0 4.5
1.5 -1.9 5.7
-2.5 -1.9 3.2
0.5 1.0 3.0
1.0 -0.5 2.0
0.5 -0.5 3.0
0.5 1.0 3.0
1.0 -0.5 2.0
3.0 1.5 3.0
-3.0 -2.0 4.0
1.0 -2.0 4.0
-3.0 -2.0 6.0
-2.4 -2.0 3.0
-1.4 -2.0 3.75
-1.0 -2.0 2.5
120 10 10 600 3 0 1 2
1 50 255 200 3 3 4 5
1 50 255 100 3 6 7 8
120 120 120 50 3 9 10 11
120 120 120 50 3 12 13 14
10 255 10 500 0.0 0.0 2.5 0.25
200 150 10 500 -0.5 0.25 2.5 0.25
150 10 255 500 -0.8 -0.7 3.5 0.25
